<?xml version="1.0" standalone="no"?>
<!DOCTYPE svg PUBLIC "-//W3C//DTD SVG 20010904//EN"
 "http://www.w3.org/TR/2001/REC-SVG-20010904/DTD/svg10.dtd">
<svg version="1.0" xmlns="http://www.w3.org/2000/svg"
 width="2181.000000pt" height="798.000000pt" viewBox="0 0 2181.000000 798.000000"
 preserveAspectRatio="xMidYMid meet">
<metadata>
Created by potrace 1.16, written by Peter Selinger 2001-2019
</metadata>
<g transform="translate(0.000000,798.000000) scale(0.100000,-0.100000)"
fill="#000000" stroke="none">
<path d="M0 4153 l0 -3828 722 3 c476 2 726 6 733 13 16 16 22 7616 6 7632 -5
5 -17 7 -27 5 -18 -3 -19 -110 -22 -3793 -1 -2084 -6 -3793 -10 -3797 -7 -7
-1341 -12 -1348 -5 -3 2 -4 1698 -4 3769 0 2071 -3 3779 -6 3796 -5 22 -12 32
-25 32 -19 0 -19 -92 -19 -3827z"/>
<path d="M12980 7971 c0 -5 -3 -16 -6 -24 -4 -11 3 -17 24 -22 22 -4 143 -120
452 -431 463 -466 435 -444 495 -381 35 36 148 184 158 207 4 8 16 29 26 45
41 63 110 215 117 257 3 18 12 50 20 71 8 20 14 51 14 68 0 20 4 29 13 27 13
-5 34 -55 63 -153 44 -149 108 -270 225 -426 71 -93 123 -141 146 -132 10 3
207 194 438 423 231 230 430 423 443 429 31 16 30 51 -3 51 -14 0 -25 -4 -25
-10 0 -5 -13 -16 -30 -25 -16 -9 -30 -21 -30 -28 0 -7 -180 -192 -400 -412
l-399 -399 -22 20 c-27 25 -143 164 -153 184 -7 15 -11 21 -56 95 -48 77 -104
211 -119 285 -4 19 -13 45 -19 57 -15 27 -16 122 -1 160 6 15 20 38 31 51 l21
22 -86 0 c-51 0 -87 -4 -87 -10 0 -5 4 -10 10 -10 17 0 42 -61 37 -89 -22
-108 -50 -211 -78 -291 -6 -19 -14 -39 -15 -45 -2 -5 -8 -17 -13 -25 -5 -8
-19 -35 -31 -60 -27 -52 -128 -210 -145 -225 -6 -5 -28 -31 -49 -57 -21 -27
-46 -48 -56 -48 -12 0 -171 152 -410 391 -302 301 -390 394 -385 408 4 15 -1
20 -29 25 -19 4 -37 13 -40 21 -6 16 -46 21 -46 6z"/>
<path d="M20732 7955 c-11 -23 -9 -27 14 -37 23 -11 28 -9 43 11 l18 24 468
-2 c258 -1 472 -4 477 -7 4 -3 8 -1784 8 -3957 0 -2174 0 -3960 0 -3969 0 -12
8 -18 25 -18 l25 0 0 3990 0 3990 -533 0 -534 0 -11 -25z"/>
<path d="M6159 7933 c-1 -5 -1 -12 0 -16 1 -5 -10 -22 -24 -39 -14 -16 -25
-38 -25 -49 0 -14 -19 -29 -74 -55 -62 -29 -96 -57 -84 -70 2 -1 28 2 58 8 33
6 120 8 218 4 89 -3 162 -2 162 2 0 10 -99 62 -117 62 -44 0 -111 114 -78 133
8 4 15 12 15 17 0 12 -49 14 -51 3z"/>
<path d="M17284 7912 c-21 -3 -186 -161 -169 -163 6 0 174 0 374 0 l364 0 26
28 c15 15 51 50 80 77 29 26 50 51 46 54 -6 6 -680 10 -721 4z"/>
<path d="M18747 7872 c-10 -10 -17 -28 -17 -40 0 -17 -17 -30 -79 -62 -44 -22
-82 -43 -84 -47 -3 -5 93 -8 213 -9 137 0 217 3 213 9 -3 5 -44 27 -91 49 -75
36 -86 44 -100 79 -17 43 -31 48 -55 21z"/>
<path d="M17957 7786 l-75 -84 2 -405 c0 -223 4 -408 7 -411 3 -3 40 30 82 73
l77 79 0 416 c0 235 -4 416 -9 416 -5 0 -42 -38 -84 -84z"/>
<path d="M17074 7687 c-3 -8 -4 -45 -2 -83 l3 -69 360 -3 c198 -1 369 0 380 2
17 5 20 13 19 68 -1 108 36 98 -385 98 -301 0 -371 -3 -375 -13z"/>
<path d="M17074 7457 c-3 -8 -4 -47 -2 -88 l3 -74 360 -3 c198 -1 369 0 381 3
19 4 21 10 17 77 -2 40 -5 79 -8 86 -7 19 -743 18 -751 -1z"/>
<path d="M17079 7228 c-11 -20 -12 -128 -1 -145 6 -9 96 -12 362 -13 195 0
360 -1 366 0 20 0 31 44 26 103 -2 31 -10 61 -16 64 -6 4 -172 8 -369 8 -326
0 -360 -2 -368 -17z"/>
<path d="M17077 7013 c-3 -5 -4 -44 -3 -88 l1 -80 380 0 380 0 0 80 c0 44 -4
83 -10 87 -13 10 -743 10 -748 1z"/>
<path d="M5945 5630 c-5 -8 68 -48 147 -79 21 -8 31 -22 41 -58 11 -39 19 -49
39 -51 22 -3 27 4 45 50 13 35 28 56 44 63 60 25 123 61 127 73 3 10 -11 11
-65 5 -80 -9 -211 -9 -305 1 -41 4 -69 3 -73 -4z"/>
<path d="M18566 5631 c-7 -11 38 -36 117 -66 51 -19 77 -53 77 -100 0 -20 5
-25 25 -25 28 0 49 28 60 76 5 27 14 35 63 53 60 22 111 55 101 66 -3 3 -51 0
-105 -6 -90 -10 -178 -8 -290 7 -25 4 -44 2 -48 -5z"/>
<path d="M8507 5575 c10 -66 10 -230 0 -329 -8 -74 -7 -78 9 -65 21 17 64 107
64 134 0 24 61 61 85 52 14 -6 15 -265 13 -2687 l-3 -2680 538 0 537 0 0 1428
c0 785 0 1989 0 2675 0 687 -2 1252 -5 1258 -4 5 -208 9 -515 9 -395 0 -512 3
-520 13 -5 6 -18 23 -29 36 -10 14 -35 30 -56 35 -33 10 -40 17 -51 56 -7 25
-27 61 -44 80 l-31 35 8 -50z m1188 -265 c9 -15 7 -5262 -2 -5271 -5 -5 -223
-8 -484 -7 l-474 3 -3 2629 c-1 1935 1 2632 9 2642 9 11 98 14 480 14 287 0
470 -4 474 -10z"/>
<path d="M12747 5583 c4 -21 7 -118 6 -215 -2 -111 1 -178 7 -178 11 0 42 57
59 110 11 35 63 76 82 64 14 -8 39 15 39 36 0 23 -28 46 -67 55 -35 7 -63 37
-63 67 0 23 -47 98 -61 98 -6 0 -7 -13 -2 -37z"/>
<path d="M6969 5567 c-15 -23 -30 -53 -34 -67 -14 -45 -38 -69 -70 -70 -46 -1
-54 -10 -38 -47 10 -26 19 -33 41 -33 38 0 44 -7 79 -80 54 -114 86 -136 64
-43 -13 54 -16 188 -7 278 4 33 8 69 9 79 4 34 -18 27 -44 -17z"/>
<path d="M9967 5573 c-13 -21 -29 -55 -36 -75 -12 -38 -47 -68 -78 -68 -33 0
-46 -16 -39 -48 6 -26 12 -31 51 -36 49 -8 60 -18 71 -61 8 -34 47 -99 65
-111 9 -5 10 4 4 37 -11 57 -12 245 -2 332 9 78 -1 86 -36 30z"/>
<path d="M14347 5578 c-13 -18 -32 -54 -41 -80 -16 -43 -22 -49 -67 -65 -39
-14 -49 -22 -49 -40 0 -25 34 -53 66 -53 22 0 54 -28 54 -49 0 -17 49 -111 58
-111 4 0 7 97 7 215 0 118 -1 215 -2 215 -1 0 -13 -15 -26 -32z"/>
<path d="M15400 5608 c0 -2 6 -26 14 -55 14 -51 14 -179 1 -310 -9 -85 12 -77
50 18 30 73 68 109 114 109 19 0 22 5 19 33 -3 29 -8 34 -53 48 -44 15 -52 22
-63 55 -14 42 -57 104 -73 104 -5 0 -9 -1 -9 -2z"/>
<path d="M17001 5584 c-12 -15 -29 -49 -39 -77 -17 -49 -42 -69 -114 -91 -25
-7 -22 -22 7 -51 15 -16 36 -25 55 -25 24 0 33 -6 41 -27 22 -58 62 -133 70
-133 12 0 11 20 -2 120 -9 62 -8 110 1 192 6 60 10 112 7 114 -3 3 -14 -7 -26
-22z"/>
<path d="M17937 5562 c4 -26 7 -120 5 -209 -1 -90 2 -163 6 -163 5 0 23 31 40
69 33 74 72 111 116 111 55 0 23 67 -40 85 -35 9 -43 18 -72 77 -42 85 -67 98
-55 30z"/>
<path d="M5743 5358 c-4 -7 -9 -1208 -10 -2668 -1 -1460 -4 -2663 -7 -2672 -4
-17 27 -18 542 -18 l547 0 -2 2672 c-3 2498 -4 2674 -20 2686 -13 9 -135 12
-529 12 -399 0 -515 -3 -521 -12z m1007 -45 c0 -5 1 -1193 3 -2640 2 -2185 0
-2634 -11 -2638 -18 -7 -926 -7 -944 0 -11 4 -13 452 -11 2632 2 1445 5 2633
8 2640 3 10 105 13 480 13 261 0 475 -3 475 -7z"/>
<path d="M13025 5358 c-3 -7 -6 -1216 -8 -2686 l-2 -2672 535 0 535 0 -3 2677
c-2 2125 -5 2678 -15 2685 -6 4 -243 8 -525 8 -401 0 -514 -3 -517 -12z m1005
-55 c0 -42 1 -5239 0 -5251 0 -10 -100 -12 -482 -10 l-483 3 -3 2629 c-2 2097
0 2631 10 2638 7 4 226 8 486 8 443 0 472 -1 472 -17z"/>
<path d="M15702 5358 c-9 -9 -12 -619 -12 -2685 l0 -2673 540 0 539 0 0 2677
c0 2041 -3 2680 -12 2685 -7 4 -244 8 -527 8 -388 0 -519 -3 -528 -12z m1003
-2683 l0 -2640 -468 -3 c-258 -1 -475 1 -483 6 -12 7 -14 361 -14 2631 0 1931
3 2628 11 2638 10 11 96 13 483 11 l471 -3 0 -2640z"/>
<path d="M18232 5362 c-10 -7 -13 -528 -15 -2685 l-2 -2677 537 0 538 0 -3
2675 c-2 2366 -4 2677 -17 2685 -18 12 -1019 13 -1038 2z m998 -2677 c3 -1490
1 -2635 -4 -2642 -6 -10 -113 -13 -477 -13 -268 0 -470 4 -473 9 -8 12 -8
5259 -1 5272 4 6 183 8 478 7 l472 -3 5 -2630z"/>
</g>
</svg>
